<?xml version="1.0" standalone="no"?>
<!DOCTYPE svg PUBLIC "-//W3C//DTD SVG 20010904//EN"
        "http://www.w3.org/TR/2001/REC-SVG-20010904/DTD/svg10.dtd">
<svg version="1.0" xmlns="http://www.w3.org/2000/svg"
     width="512.000000pt" height="512.000000pt" viewBox="0 0 512.000000 512.000000"
     preserveAspectRatio="xMidYMid meet">

    <g transform="translate(0.000000,512.000000) scale(0.100000,-0.100000)"
       fill="#000000" stroke="none">
        <path d="M2371 5110 c-626 -52 -1179 -307 -1616 -745 -347 -346 -586 -779
-689 -1245 -80 -365 -80 -755 0 -1120 191 -864 846 -1589 1689 -1865 274 -90
511 -128 805 -128 693 0 1315 258 1805 748 407 405 654 908 731 1485 22 167
22 473 0 640 -77 578 -323 1077 -731 1486 -402 403 -913 656 -1475 728 -150
20 -388 27 -519 16z m631 -1070 c71 -20 78 -40 78 -231 l0 -169 319 0 c207 0
329 -4 350 -11 33 -12 61 -52 61 -89 0 -12 -13 -35 -29 -51 l-29 -29 -131 0
-131 0 0 -1075 c0 -945 -2 -1080 -15 -1112 -20 -48 -41 -71 -87 -94 -36 -18
-72 -19 -842 -19 -543 0 -814 3 -833 11 -42 15 -92 68 -103 109 -6 22 -10 434
-10 1108 l0 1072 -131 0 -131 0 -29 29 c-16 16 -29 39 -29 51 0 37 28 77 61
89 21 7 143 11 350 11 l319 0 0 169 c0 155 2 170 21 195 11 14 35 30 52 35 45
13 872 14 919 1z"/>
        <path d="M2190 3755 l0 -115 355 0 355 0 0 115 0 115 -355 0 -355 0 0 -115z"/>
        <path d="M1780 2395 l0 -1055 765 0 765 0 0 1055 0 1055 -765 0 -765 0 0
-1055z m411 886 l29 -29 0 -842 0 -842 -29 -29 c-46 -46 -106 -37 -136 21 -23
44 -23 1656 0 1700 30 58 89 67 136 21z m420 19 c50 -27 49 -9 49 -890 0 -713
-2 -825 -15 -850 -30 -58 -90 -67 -136 -21 l-29 29 0 842 0 842 29 29 c31 30
67 37 102 19z m432 -2 c12 -6 27 -18 34 -27 18 -23 18 -1699 0 -1722 -34 -44
-96 -51 -132 -14 l-25 24 0 849 c0 663 3 852 13 864 28 36 72 47 110 26z"/>
    </g>
</svg>
